# AST/ASF file generated using VICON BodyLanguage
# -----------------------------------------------
:version 1.10
:name VICON
:units
  mass 1.0
  length 0.45
  angle deg
:documentation
   .ast/.asf automatically generated from VICON data using
   VICON BodyBuilder and BodyLanguage model FoxedUp or BRILLIANT.MOD
:root
   order TX TY TZ RX RY RZ
   axis XYZ
   position 0 0 0  
   orientation 0 0 0 
:bonedata
  begin
     id 1 
     name lhipjoint
     direction 0.588788 -0.725889 0.355548 
     length 2.37778 
     axis 0 0 0  XYZ
  end
  begin
     id 2 
     name lfemur
     direction 0.34202 -0.939693 0  
     length 6.86393  
     axis 0 0 20  XYZ
    dof rx ry rz
    limits (-160.0 20.0)
           (-70.0 70.0)
           (-60.0 70.0)
  end
  begin
     id 3 
     name ltibia
     direction 0.34202 -0.939693 0   
     length 7.32851   
     axis 0 0 20   XYZ
    dof rx
    limits (-10.0 170.0)
  end
  begin
     id 4 
     name lfoot
     direction 0.0626533 -0.172138 0.983078   
     length 1.98929   
     axis -90 7.62852e-016 20   XYZ
    dof rx rz
    limits (-45.0 90.0)
           (-70.0 20.0)
  end
  begin
     id 5 
     name ltoes
     direction 1.53647e-011 -4.21734e-011 1   
     length 1.00479   
     axis -90 7.62852e-016 20   XYZ
    dof rx
    limits (-90.0 20.0)
  end
  begin
     id 6 
     name rhipjoint
     direction -0.59141 -0.724168 0.354705   
     length 2.38343  
     axis 0 0 0  XYZ 
  end
  begin
     id 7 
     name rfemur
     direction -0.34202 -0.939693 0   
     length 6.95589   
     axis 0 0 -20   XYZ
    dof rx ry rz
    limits (-160.0 20.0)
           (-70.0 70.0)
           (-70.0 60.0)
  end
  begin
     id 8 
     name rtibia
     direction -0.34202 -0.939693 0   
     length 7.32327   
     axis 0 0 -20   XYZ
    dof rx
    limits (-10.0 170.0)
 end
 begin
     id 9 
     name rfoot
     direction -0.0660461 -0.18146 0.981178   
     length 1.85272  
     axis -90 -7.62852e-016 -20   XYZ
    dof rx rz
    limits (-45.0 90.0)
           (-20.0 70.0)
  end
  begin
     id 10 
     name rtoes
     direction -1.53586e-011 -4.21988e-011 1   
     length 0.93746   
     axis -90 -7.62852e-016 -20   XYZ
    dof rx
    limits (-90.0 20.0)
  end
  begin
     id 11 
     name lowerback
     direction -0.0107982 0.991059 0.13299   
     length 1.98691   
     axis 0 0 0   XYZ
    dof rx ry rz
    limits (-20.0 45.0)
           (-30.0 30.0)
           (-30.0 30.0)
  end
  begin
     id 12 
     name upperback
     direction 0.0076296 0.999916 0.0104576   
     length 1.99501   
     axis 0 0 0   XYZ
    dof rx ry rz
    limits (-20.0 45.0)
           (-30.0 30.0)
           (-30.0 30.0)
  end
  begin
     id 13 
     name thorax
     direction 0.01176 0.998615 -0.0512909   
     length 2.03144   
     axis 0 0 0   XYZ
    dof rx ry rz
    limits (-20.0 45.0)
           (-30.0 30.0)
           (-30.0 30.0)
  end
  begin
     id 14 
     name lowerneck
     direction -0.0171909 0.999644 0.0204011   
     length 1.71818   
     axis 0 0 0   XYZ
    dof rx ry rz
    limits (-20.0 45.0)
           (-30.0 30.0)
           (-30.0 30.0)
  end
  begin
     id 15 
     name upperneck
     direction 0.0250902 0.997482 -0.0663316   
     length 1.66199   
     axis 0 0 0   XYZ
    dof rx ry rz
    limits (-20.0 45.0)
           (-30.0 30.0)
           (-30.0 30.0)
  end
  begin
     id 16
     name head
     direction 0.00881535 0.99956 -0.0283365  
     length 1.81545  
     axis 0 0 0   XYZ
    dof rx ry rz
    limits (-20.0 45.0)
           (-30.0 30.0)
           (-30.0 30.0)
  end
  begin
     id 17 
     name lclavicle
     direction 0.840411 0.486876 -0.238035  
     length 3.30409  
     axis 0 0 0   XYZ
    dof ry rz
    limits (-20.0 10.0)
           (0.0 20.0)
  end
  begin
     id 18 
     name lhumerus
     direction 1 -4.48977e-011 -5.16239e-027   
     length 4.62672   
     axis 180 -30 -90   XYZ
    dof rx ry rz
    limits (-60.0 90.0)
           (-90.0 90.0)
           (-90.0 90.0)
  end
  begin
     id 19
     name lradius
     direction 1 -4.48977e-011 -8.71171e-027   
     length 3.11018   
     axis 180 -30 -90   XYZ
    dof rx
    limits (-10.0 170.0)
  end
  begin
     id 20
     name lwrist
     direction 1 -4.48912e-011 -1.03764e-026   
     length 1.55509   
     axis 9.09556e-015 90 90   XYZ
    dof ry
    limits (-180.0 0.0)
 end
  begin
     id 21 
     name lhand
     direction 1 -4.49072e-011 -2.07528e-026   
     length 0.743834   
     axis 1.3242e-014 90 90   XYZ
    dof rx rz
    limits (-90.0 90.0)
           (-45.0 45.0)
  end
  begin
     id 22 
     name lfingers
     direction 1 -4.48909e-011 -4.15056e-026   
     length 0.599698   
     axis 2.64841e-014 90 90   XYZ
    dof rx
    limits (0.0 90.0)
  end
  begin
     id 23
     name lthumb
     direction 0.707107 -6.35013e-011 0.707107   
     length 0.86105   
     axis -90 45 2.85299e-015   XYZ
    dof rx rz
    limits (-45.0 45.0)
           (-45.0 45.0)
  end
  begin
     id 24 
     name rclavicle
     direction -0.835208 0.500237 -0.228452   
     length 3.2716  
     axis 0 0 0   XYZ 
    dof ry rz
    limits (-10.0 20.0)
           (-20.0 0.0)
  end
  begin
     id 25 
     name rhumerus
     direction -1 -4.48978e-011 -5.1953e-028  
     length 4.55919   
     axis 180 30 90   XYZ
    dof rx ry rz
    limits (-90.0 60.0)
           (-90.0 90.0)
           (-90.0 90.0)
  end
  begin
     id 26 
     name rradius
     direction -1 -4.48961e-011 -5.99546e-027   
     length 3.22748   
     axis 180 30 90   XYZ
    dof rx
    limits (-10.0 170.0)
  end
  begin
     id 27 
     name rwrist
     direction -1 -4.48986e-011 -1.03764e-026   
     length 1.61374   
     axis 9.09556e-015 -90 -90   XYZ
    dof ry
    limits (-180.0 0.0)
  end
  begin
     id 28
     name rhand
     direction -1 -4.4899e-011 -2.07528e-026   
     length 0.700882   
     axis 1.3242e-014 -90 -90   XYZ
    dof rx rz
    limits (-90.0 90.0)
           (-45.0 45.0)
  end
  begin
     id 29
     name rfingers
     direction -1 -4.48991e-011 -4.15056e-026   
     length 0.565069   
     axis 2.64841e-014 -90 -90   XYZ
    dof rx
    limits (0.0 90.0)
  end
  begin
     id 30
     name rthumb
     direction -0.707107 -6.34804e-011 0.707107   
     length 0.811329   
     axis -90 -45 -2.85299e-015   XYZ
    dof rx rz
    limits (-45.0 45.0)
           (-45.0 45.0)
  end
:hierarchy
  begin
    root lhipjoint rhipjoint lowerback
    lhipjoint lfemur
    lfemur ltibia
    ltibia lfoot
    lfoot ltoes
    rhipjoint rfemur
    rfemur rtibia
    rtibia rfoot
    rfoot rtoes
    lowerback upperback
    upperback thorax
    thorax lowerneck lclavicle rclavicle
    lowerneck upperneck
    upperneck head
    lclavicle lhumerus
    lhumerus lradius
    lradius lwrist
    lwrist lhand lthumb
    lhand lfingers
    rclavicle rhumerus
    rhumerus rradius
    rradius rwrist
    rwrist rhand rthumb
    rhand rfingers
  end

#!OML:ASF F:\VICON\USERDATA\INSTALL\SteveWalk\SteveWalk.ASF
:FULLY-SPECIFIED
:DEGREES
256
root 0.108816 16.1683 14.6602 19.7498 -4.81119 -3.53822
lowerback -17.9458 2.94385 4.13921
upperback -4.89426 3.03325 1.39965
thorax 4.91202 1.51116 -0.193378
lowerneck -2.91361 -0.986608 -0.423345
upperneck 8.53148 -1.22107 -0.917423
head 3.23922 -0.653058 -0.269331
rclavicle 1.5586e-014 2.78299e-015
rhumerus -17.281 9.94359 -83.9476
rradius 56.2665
rwrist -17.9964
rhand -15.9836 -33.114
rfingers 7.12502
rthumb 10.216 -62.8459
lclavicle 1.5586e-014 2.78299e-015
lhumerus -69.5938 27.6553 42.7596
lradius 11.6722
lwrist -36.4792
lhand -13.2145 -13.9193
lfingers 7.12502
lthumb 12.8864 15.6629
rfemur -6.91325 -9.08011 24.5394
rtibia 21.2656
rfoot -24.486 20.8988
rtoes -3.88341
lfemur -50.6872 8.16102 -21.1559
ltibia 13.3
lfoot -8.81375 0.979111
ltoes -8.09517
257
root 0.114673 16.1517 14.8932 19.7857 -5.39616 -3.2143
lowerback -17.8773 3.01715 3.64284
upperback -4.97101 3.23523 1.21287
thorax 4.78676 1.60587 -0.0734913
lowerneck -3.10961 -0.954385 -0.453611
upperneck 8.72755 -1.18453 -0.782919
head 3.34555 -0.631886 -0.221533
rclavicle -1.57723e-014 -2.50469e-014
rhumerus -16.9042 10.2667 -83.8525
rradius 56.7056
rwrist -17.9668
rhand -16.847 -32.8549
rfingers 7.12502
rthumb 9.383 -62.626
lclavicle -1.57723e-014 -2.50469e-014
lhumerus -70.3421 27.0435 42.4466
lradius 11.8932
lwrist -35.3017
lhand -12.6921 -13.057
lfingers 7.12502
lthumb 13.39 16.4927
rfemur -5.88496 -8.18932 23.756
rtibia 20.821
rfoot -23.9613 21.0455
rtoes -3.23866
lfemur -50.6678 9.31709 -22.6323
ltibia 11.7671
lfoot -9.31327 -1.04484
ltoes -6.49104
258
root 0.1162 16.1322 15.1232 19.8765 -6.08505 -2.76884
lowerback -17.8122 3.1268 2.91328
upperback -5.11995 3.52819 0.991458
thorax 4.57544 1.7445 0.157666
lowerneck -3.14221 -1.00394 -0.574081
upperneck 8.78172 -1.25678 -0.619934
head 3.37242 -0.665613 -0.150834
rclavicle 2.92276e-014 3.65764e-014
rhumerus -16.7916 10.2733 -83.7314
rradius 57.2267
rwrist -17.8002
rhand -16.9707 -32.5906
rfingers 7.12502
rthumb 9.26363 -62.3671
lclavicle 2.92276e-014 3.65764e-014
lhumerus -71.8075 27.0963 40.1786
lradius 11.6909
lwrist -36.7577
lhand -12.7717 -13.3755
lfingers 7.12502
lthumb 13.3133 16.1792
rfemur -5.01261 -7.13895 22.8445
rtibia 20.4689
rfoot -22.7272 21.554
rtoes -0.6292
lfemur -50.7703 9.38023 -23.1611
ltibia 10.9401
lfoot -9.10454 -1.29367
ltoes -8.4547
259
root 0.104217 16.1118 15.3418 20.1068 -6.96785 -2.57093
lowerback -17.6255 3.30186 2.12418
upperback -5.3608 3.91387 0.878549
thorax 4.18633 1.93106 0.544442
lowerneck -3.06685 -1.07886 -0.745642
upperneck 8.66369 -1.36655 -0.399511
head 3.32025 -0.716785 -0.0524445
rclavicle -1.30018e-014 -3.18055e-015
rhumerus -16.9471 10.1513 -83.6356
rradius 57.9048
rwrist -17.5104
rhand -16.9236 -32.2851
rfingers 7.12502
rthumb 9.30909 -62.0596
lclavicle -1.30018e-014 -3.18055e-015
lhumerus -73.9378 27.6642 36.1706
lradius 11.1618
lwrist -40.29
lhand -13.537 -14.3757
lfingers 7.12502
lthumb 12.5755 15.2258
rfemur -4.29825 -5.74677 22.2588
rtibia 20.0994
rfoot -21.0608 21.4862
rtoes 0.178172
lfemur -51.2029 9.80101 -23.4575
ltibia 10.8483
lfoot -8.93622 -1.71145
ltoes -9.21099
260
root 0.107036 16.0742 15.5637 20.1478 -7.43871 -2.39894
lowerback -17.3287 3.37988 1.64157
upperback -5.4442 4.11715 0.740156
thorax 3.92089 2.03173 0.690428
lowerneck -3.3552 -1.12063 -0.85538
upperneck 8.70949 -1.43643 -0.121727
head 3.3951 -0.744552 0.0522626
rclavicle 4.3099e-014 2.70347e-014
rhumerus -17.0051 10.0595 -83.581
rradius 58.5288
rwrist -17.234
rhand -17.1238 -31.9249
rfingers 7.12502
rthumb 9.11586 -61.7079
lclavicle 4.3099e-014 2.70347e-014
lhumerus -76.3774 28.4968 31.2365
lradius 10.5686
lwrist -44.6009
lhand -14.6222 -15.8916
lfingers 7.12502
lthumb 11.5291 13.7713
rfemur -3.31001 -4.88153 21.733
rtibia 19.8968
rfoot -21.5964 20.1706
rtoes -7.28049
lfemur -51.4448 9.85617 -23.5659
ltibia 11.2555
lfoot -9.36547 -2.33881
ltoes -2.8211
261
root 0.122814 16.0173 15.8112 19.7863 -6.7087 -1.9835
lowerback -17.0639 3.08175 1.35093
upperback -5.35854 3.79071 0.56864
thorax 3.86486 1.87146 0.594551
lowerneck -3.52234 -1.17144 -0.829343
upperneck 8.64569 -1.51736 0.0225956
head 3.40662 -0.778023 0.0906943
rclavicle -3.46755e-014 -4.77083e-015
rhumerus -16.9411 10.0092 -83.5264
rradius 58.7714
rwrist -17.1852
rhand -17.3388 -31.9796
rfingers 7.12502
rthumb 8.90846 -61.7716
lclavicle -3.46755e-014 -4.77083e-015
lhumerus -76.9898 28.3651 30.2357
lradius 10.6653
lwrist -44.3645
lhand -14.037 -14.1989
lfingers 7.12502
lthumb 12.0934 15.4316
rfemur -1.75719 -4.99836 21.2949
rtibia 19.9061
rfoot -23.7054 17.5735
rtoes -19.4924
lfemur -51.1658 8.2647 -23.0849
ltibia 11.9259
lfoot -10.0466 -2.17389
ltoes -0.0340907
